<!DOCTYPE svg PUBLIC "-//W3C//DTD SVG 20010904//EN" "http://www.w3.org/TR/2001/REC-SVG-20010904/DTD/svg10.dtd">
<svg version="1.0" xmlns="http://www.w3.org/2000/svg" width="48px" height="48px" viewBox="0 0 480 480" preserveAspectRatio="xMidYMid meet">
<g id="layer101" fill="#020202" stroke="none">
 <path d="M0 240 l0 -240 240 0 240 0 0 240 0 240 -240 0 -240 0 0 -240z"/>
 </g>
<g id="layer102" fill="#4f4f4f" stroke="none">
 <path d="M0 240 l0 -240 240 0 240 0 0 240 0 240 -240 0 -240 0 0 -240z m448 173 c-34 -69 -46 -84 -80 -98 -49 -19 -47 -20 -44 13 4 40 -9 59 -50 72 -31 10 -38 10 -56 -7 -11 -10 -22 -16 -25 -13 -3 3 -15 -14 -28 -38 -17 -31 -26 -40 -32 -30 -4 7 -24 25 -44 40 -20 15 -39 36 -42 48 -5 20 -2 20 200 20 112 0 203 -3 201 -7z m-134 -209 c6 -10 17 -23 24 -27 22 -14 14 -35 -13 -30 -20 4 -25 0 -31 -23 -10 -44 -23 -54 -68 -54 -53 0 -74 16 -78 60 -3 30 -6 35 -26 32 -18 -1 -23 2 -20 15 2 10 14 19 28 21 14 2 32 6 40 9 8 3 28 7 44 7 16 1 31 7 33 13 6 17 55 0 67 -23z"/>
 </g>
<g id="layer103" fill="#b5b5b5" stroke="none">
 <path d="M0 240 l0 -240 240 0 240 0 0 240 0 240 -240 0 -240 0 0 -240z m440 156 c-17 -46 -35 -66 -73 -81 -48 -19 -46 -20 -44 13 2 24 -24 67 -41 67 -4 0 -12 4 -19 8 -18 12 -87 -36 -105 -73 -13 -26 -17 -29 -24 -17 -5 8 -24 23 -43 34 -21 11 -38 30 -42 46 l-7 27 204 0 204 0 -10 -24z m-176 -132 c8 -3 12 -12 9 -20 -4 -10 0 -12 11 -8 11 4 19 -3 28 -23 7 -15 18 -32 25 -36 23 -14 15 -35 -12 -29 -21 4 -25 1 -25 -20 0 -38 -22 -59 -67 -65 -35 -5 -45 -2 -67 20 -14 15 -26 38 -26 52 0 20 -5 25 -25 25 -14 0 -25 4 -25 9 0 12 29 34 48 37 103 12 124 22 102 49 -13 16 -4 20 24 9z"/>
 </g>
<g id="layer104" fill="#d1d1d1" stroke="none">
 <path d="M0 240 l0 -240 240 0 240 0 0 240 0 240 -240 0 -240 0 0 -240z m444 163 c-9 -37 -33 -67 -67 -87 -42 -24 -56 -21 -54 12 3 31 -5 42 -50 64 -21 10 -35 12 -41 6 -6 -6 -21 -16 -33 -22 -13 -6 -28 -25 -33 -41 -14 -41 -16 -42 -29 -24 -7 9 -26 23 -44 33 -33 17 -53 43 -53 70 0 14 26 16 205 16 l205 0 -6 -27z m-168 -122 c-5 -8 -56 -3 -56 5 0 2 14 4 31 4 16 0 28 -4 25 -9z m-136 -41 c-6 -12 -14 -20 -17 -17 -2 3 1 14 8 26 17 26 24 19 9 -9z m139 16 c-14 -15 -11 -26 6 -19 11 4 19 -4 28 -26 6 -17 17 -31 24 -31 7 0 13 -8 13 -19 0 -14 -6 -17 -25 -13 -22 4 -25 1 -25 -22 0 -14 -9 -35 -20 -46 -44 -44 -140 -9 -140 51 0 24 -4 29 -25 29 -49 0 -26 42 25 47 24 2 60 9 70 14 3 1 11 3 19 3 8 1 16 7 19 15 3 9 -2 11 -17 6 -13 -4 -21 -2 -21 5 0 6 5 8 10 5 6 -3 10 -2 10 4 0 6 13 9 29 8 19 -1 26 -6 20 -11z"/>
 </g>
<g id="layer105" fill="#fefefe" stroke="none">
 <path d="M0 240 l0 -240 240 0 240 0 0 240 0 240 -240 0 -240 0 0 -240z m450 175 c0 -45 -50 -101 -98 -111 -29 -6 -31 -5 -29 22 3 33 -5 44 -48 65 -28 14 -32 14 -49 -3 -11 -10 -22 -16 -24 -13 -8 8 -42 -47 -42 -67 0 -24 -17 -23 -25 1 -3 10 -19 24 -36 31 -33 14 -59 45 -59 72 0 17 15 18 205 18 178 0 205 -2 205 -15z m-166 -142 c4 -9 2 -20 -5 -23 -6 -5 -1 -10 14 -14 15 -3 27 -15 31 -31 4 -14 11 -25 16 -25 6 0 10 -10 10 -21 0 -17 -5 -20 -20 -16 -17 4 -22 0 -27 -24 -7 -38 -38 -59 -85 -59 -47 0 -78 28 -78 71 0 27 -3 31 -21 26 -26 -7 -36 18 -17 41 8 9 20 32 28 50 7 17 16 32 21 32 12 0 11 -6 -6 -41 l-16 -30 33 4 c19 2 39 7 46 11 7 4 16 5 21 2 5 -3 11 1 15 9 4 10 -1 14 -16 12 -11 -1 -23 4 -25 11 -3 7 1 13 8 11 31 -4 44 2 24 11 -17 7 -15 9 11 9 21 1 34 -5 38 -16z"/>
 </g>

</svg>